<svg width="45" height="45" viewBox="0 0 45 45" fill="none" xmlns="http://www.w3.org/2000/svg">
<rect width="45" height="45" rx="7.2" fill="#244A9A"/>
<mask id="mask0_1_171" style="mask-type:alpha" maskUnits="userSpaceOnUse" x="0" y="0" width="45" height="45">
<rect width="45" height="45" rx="7.2" fill="#7277C6"/>
</mask>
<g mask="url(#mask0_1_171)">
<rect x="-23.4" y="24.3" width="45" height="45" rx="7.2" fill="#F9C5AF"/>
<rect x="7.19995" y="-8.09995" width="45" height="45" rx="7.2" fill="#1658DA"/>
</g>
<path d="M14.472 22.0412C14.472 20.1728 14.7852 18.7148 15.4116 17.6672C16.0488 16.6088 17.1396 16.0796 18.684 16.0796C20.2284 16.0796 21.3138 16.6088 21.9402 17.6672C22.5774 18.7148 22.896 20.1728 22.896 22.0412C22.896 23.9312 22.5774 25.4108 21.9402 26.48C21.3138 27.5384 20.2284 28.0676 18.684 28.0676C17.1396 28.0676 16.0488 27.5384 15.4116 26.48C14.7852 25.4108 14.472 23.9312 14.472 22.0412ZM21.0816 22.0412C21.0816 21.1664 21.0222 20.4266 20.9034 19.8218C20.7954 19.217 20.5686 18.7256 20.223 18.3476C19.8774 17.9588 19.3644 17.7644 18.684 17.7644C18.0036 17.7644 17.4906 17.9588 17.145 18.3476C16.7994 18.7256 16.5672 19.217 16.4484 19.8218C16.3404 20.4266 16.2864 21.1664 16.2864 22.0412C16.2864 22.9484 16.3404 23.7098 16.4484 24.3254C16.5564 24.941 16.7832 25.4378 17.1288 25.8158C17.4852 26.1938 18.0036 26.3828 18.684 26.3828C19.3644 26.3828 19.8774 26.1938 20.223 25.8158C20.5794 25.4378 20.8116 24.941 20.9196 24.3254C21.0276 23.7098 21.0816 22.9484 21.0816 22.0412ZM25.8707 25.589C26.9075 24.6926 27.7229 23.9582 28.3169 23.3858C28.9217 22.8026 29.4239 22.1978 29.8235 21.5714C30.2231 20.945 30.4229 20.3186 30.4229 19.6922C30.4229 19.0442 30.2663 18.5366 29.9531 18.1694C29.6507 17.8022 29.1701 17.6186 28.5113 17.6186C27.8741 17.6186 27.3773 17.8238 27.0209 18.2342C26.6753 18.6338 26.4917 19.1738 26.4701 19.8542H24.6881C24.7205 18.623 25.0877 17.6834 25.7897 17.0354C26.5025 16.3766 27.4043 16.0472 28.4951 16.0472C29.6723 16.0472 30.5903 16.3712 31.2491 17.0192C31.9187 17.6672 32.2535 18.5312 32.2535 19.6112C32.2535 20.3888 32.0537 21.1394 31.6541 21.863C31.2653 22.5758 30.7955 23.2184 30.2447 23.7908C29.7047 24.3524 29.0135 25.0058 28.1711 25.751L27.4421 26.399H32.5775V27.938H24.7043V26.5934L25.8707 25.589Z" fill="white"/>
</svg>
