<svg width="45" height="46" viewBox="0 0 45 46" fill="none" xmlns="http://www.w3.org/2000/svg">
<rect y="0.799805" width="45" height="45" rx="7.2" fill="#244A9A"/>
<mask id="mask0_1_181" style="mask-type:alpha" maskUnits="userSpaceOnUse" x="0" y="0" width="45" height="46">
<rect y="0.799805" width="45" height="45" rx="7.2" fill="#7277C6"/>
</mask>
<g mask="url(#mask0_1_181)">
<rect x="-23.4" y="25.0999" width="45" height="45" rx="7.2" fill="#F9C5AF"/>
<rect x="7.19995" y="-7.30014" width="45" height="45" rx="7.2" fill="#1658DA"/>
</g>
<path d="M14.472 22.8411C14.472 20.9727 14.7852 19.5147 15.4116 18.4671C16.0488 17.4087 17.1396 16.8795 18.684 16.8795C20.2284 16.8795 21.3138 17.4087 21.9402 18.4671C22.5774 19.5147 22.896 20.9727 22.896 22.8411C22.896 24.7311 22.5774 26.2107 21.9402 27.2799C21.3138 28.3383 20.2284 28.8675 18.684 28.8675C17.1396 28.8675 16.0488 28.3383 15.4116 27.2799C14.7852 26.2107 14.472 24.7311 14.472 22.8411ZM21.0816 22.8411C21.0816 21.9663 21.0222 21.2265 20.9034 20.6217C20.7954 20.0169 20.5686 19.5255 20.223 19.1475C19.8774 18.7587 19.3644 18.5643 18.684 18.5643C18.0036 18.5643 17.4906 18.7587 17.145 19.1475C16.7994 19.5255 16.5672 20.0169 16.4484 20.6217C16.3404 21.2265 16.2864 21.9663 16.2864 22.8411C16.2864 23.7483 16.3404 24.5097 16.4484 25.1253C16.5564 25.7409 16.7832 26.2377 17.1288 26.6157C17.4852 26.9937 18.0036 27.1827 18.684 27.1827C19.3644 27.1827 19.8774 26.9937 20.223 26.6157C20.5794 26.2377 20.8116 25.7409 20.9196 25.1253C21.0276 24.5097 21.0816 23.7483 21.0816 22.8411ZM32.4641 18.6777H27.0371V21.9015C27.2639 21.5991 27.5987 21.3453 28.0415 21.1401C28.4951 20.9349 28.9757 20.8323 29.4833 20.8323C30.3905 20.8323 31.1249 21.0267 31.6865 21.4155C32.2589 21.8043 32.6639 22.2957 32.9015 22.8897C33.1499 23.4837 33.2741 24.1101 33.2741 24.7689C33.2741 25.5681 33.1175 26.2809 32.8043 26.9073C32.5019 27.5229 32.0429 28.0089 31.4273 28.3653C30.8225 28.7217 30.0773 28.8999 29.1917 28.8999C28.0145 28.8999 27.0695 28.6083 26.3567 28.0251C25.6439 27.4419 25.2173 26.6697 25.0769 25.7085H26.8751C26.9939 26.2161 27.2585 26.6211 27.6689 26.9235C28.0793 27.2151 28.5923 27.3609 29.2079 27.3609C29.9747 27.3609 30.5471 27.1287 30.9251 26.6643C31.3139 26.1999 31.5083 25.5843 31.5083 24.8175C31.5083 24.0399 31.3139 23.4459 30.9251 23.0355C30.5363 22.6143 29.9639 22.4037 29.2079 22.4037C28.6787 22.4037 28.2305 22.5387 27.8633 22.8087C27.5069 23.0679 27.2477 23.4243 27.0857 23.8779H25.3361V17.0577H32.4641V18.6777Z" fill="white"/>
</svg>
