<svg width="45" height="46" viewBox="0 0 45 46" fill="none" xmlns="http://www.w3.org/2000/svg">
<rect y="0.799805" width="45" height="45" rx="7.2" fill="#244A9A"/>
<mask id="mask0_1_161" style="mask-type:alpha" maskUnits="userSpaceOnUse" x="0" y="0" width="45" height="46">
<rect y="0.799805" width="45" height="45" rx="7.2" fill="#7277C6"/>
</mask>
<g mask="url(#mask0_1_161)">
<rect x="-23.4001" y="25.0999" width="45" height="45" rx="7.2" fill="#F9C5AF"/>
<rect x="7.19995" y="-7.30014" width="45" height="45" rx="7.2" fill="#1658DA"/>
</g>
<path d="M14.472 22.8411C14.472 20.9727 14.7852 19.5147 15.4116 18.4671C16.0488 17.4087 17.1396 16.8795 18.684 16.8795C20.2284 16.8795 21.3138 17.4087 21.9402 18.4671C22.5774 19.5147 22.896 20.9727 22.896 22.8411C22.896 24.7311 22.5774 26.2107 21.9402 27.2799C21.3138 28.3383 20.2284 28.8675 18.684 28.8675C17.1396 28.8675 16.0488 28.3383 15.4116 27.2799C14.7852 26.2107 14.472 24.7311 14.472 22.8411ZM21.0816 22.8411C21.0816 21.9663 21.0222 21.2265 20.9034 20.6217C20.7954 20.0169 20.5686 19.5255 20.223 19.1475C19.8774 18.7587 19.3644 18.5643 18.684 18.5643C18.0036 18.5643 17.4906 18.7587 17.145 19.1475C16.7994 19.5255 16.5672 20.0169 16.4484 20.6217C16.3404 21.2265 16.2864 21.9663 16.2864 22.8411C16.2864 23.7483 16.3404 24.5097 16.4484 25.1253C16.5564 25.7409 16.7832 26.2377 17.1288 26.6157C17.4852 26.9937 18.0036 27.1827 18.684 27.1827C19.3644 27.1827 19.8774 26.9937 20.223 26.6157C20.5794 26.2377 20.8116 25.7409 20.9196 25.1253C21.0276 24.5097 21.0816 23.7483 21.0816 22.8411ZM24.6233 26.4375V25.0443L30.0665 17.2359H32.3021V24.8337H33.8087V26.4375H32.3021V28.8999H30.4877V26.4375H24.6233ZM30.5687 19.1151L26.7455 24.8337H30.5687V19.1151Z" fill="white"/>
</svg>
