<svg width="45" height="46" viewBox="0 0 45 46" fill="none" xmlns="http://www.w3.org/2000/svg">
<rect y="0.799805" width="44.0459" height="45" rx="7.2" fill="#244A9A"/>
<mask id="mask0_1_201" style="mask-type:alpha" maskUnits="userSpaceOnUse" x="0" y="0" width="45" height="46">
<rect y="0.799805" width="44.0459" height="45" rx="7.2" fill="#7277C6"/>
</mask>
<g mask="url(#mask0_1_201)">
<rect x="-22.904" y="25.0999" width="44.0459" height="45" rx="7.2" fill="#F9C5AF"/>
<rect x="7.0473" y="-7.30014" width="44.0459" height="45" rx="7.2" fill="#1658DA"/>
</g>
<path d="M14.1858 22.8411C14.1858 20.9727 14.499 19.5147 15.1254 18.4671C15.7626 17.4087 16.8534 16.8795 18.3978 16.8795C19.9422 16.8795 21.0276 17.4087 21.654 18.4671C22.2912 19.5147 22.6098 20.9727 22.6098 22.8411C22.6098 24.7311 22.2912 26.2107 21.654 27.2799C21.0276 28.3383 19.9422 28.8675 18.3978 28.8675C16.8534 28.8675 15.7626 28.3383 15.1254 27.2799C14.499 26.2107 14.1858 24.7311 14.1858 22.8411ZM20.7954 22.8411C20.7954 21.9663 20.736 21.2265 20.6172 20.6217C20.5092 20.0169 20.2824 19.5255 19.9368 19.1475C19.5912 18.7587 19.0782 18.5643 18.3978 18.5643C17.7174 18.5643 17.2044 18.7587 16.8588 19.1475C16.5132 19.5255 16.281 20.0169 16.1622 20.6217C16.0542 21.2265 16.0002 21.9663 16.0002 22.8411C16.0002 23.7483 16.0542 24.5097 16.1622 25.1253C16.2702 25.7409 16.497 26.2377 16.8426 26.6157C17.199 26.9937 17.7174 27.1827 18.3978 27.1827C19.0782 27.1827 19.5912 26.9937 19.9368 26.6157C20.2932 26.2377 20.5254 25.7409 20.6334 25.1253C20.7414 24.5097 20.7954 23.7483 20.7954 22.8411ZM30.9143 19.8279C30.7955 19.3311 30.5795 18.9585 30.2663 18.7101C29.9531 18.4617 29.5157 18.3375 28.9541 18.3375C28.1009 18.3375 27.4637 18.6669 27.0425 19.3257C26.6213 19.9737 26.3999 21.0537 26.3783 22.5657C26.6591 22.0905 27.0695 21.7233 27.6095 21.4641C28.1495 21.2049 28.7327 21.0753 29.3591 21.0753C30.0719 21.0753 30.6983 21.2319 31.2383 21.5451C31.7891 21.8475 32.2157 22.2903 32.5181 22.8735C32.8313 23.4567 32.9879 24.1533 32.9879 24.9633C32.9879 25.7193 32.8367 26.3943 32.5343 26.9883C32.2427 27.5823 31.8053 28.0521 31.2221 28.3977C30.6389 28.7325 29.9369 28.8999 29.1161 28.8999C28.0037 28.8999 27.1289 28.6569 26.4917 28.1709C25.8653 27.6741 25.4225 26.9775 25.1633 26.0811C24.9149 25.1847 24.7907 24.0669 24.7907 22.7277C24.7907 18.7749 26.1839 16.7985 28.9703 16.7985C30.0503 16.7985 30.8981 17.0901 31.5137 17.6733C32.1401 18.2565 32.5073 18.9747 32.6153 19.8279H30.9143ZM28.9541 22.6305C28.2953 22.6305 27.7337 22.8303 27.2693 23.2299C26.8157 23.6187 26.5889 24.1857 26.5889 24.9309C26.5889 25.6761 26.7995 26.2701 27.2207 26.7129C27.6527 27.1449 28.2521 27.3609 29.0189 27.3609C29.6993 27.3609 30.2339 27.1503 30.6227 26.7291C31.0223 26.3079 31.2221 25.7463 31.2221 25.0443C31.2221 24.3099 31.0277 23.7267 30.6389 23.2947C30.2609 22.8519 29.6993 22.6305 28.9541 22.6305Z" fill="white"/>
</svg>
