<svg width="45" height="45" viewBox="0 0 45 45" fill="none" xmlns="http://www.w3.org/2000/svg">
<rect width="45" height="45" rx="7.2" fill="#244A9A"/>
<mask id="mask0_1_191" style="mask-type:alpha" maskUnits="userSpaceOnUse" x="0" y="0" width="45" height="45">
<rect width="45" height="45" rx="7.2" fill="#7277C6"/>
</mask>
<g mask="url(#mask0_1_191)">
<rect x="-23.4001" y="24.3" width="45" height="45" rx="7.2" fill="#F9C5AF"/>
<rect x="7.19995" y="-8.09995" width="45" height="45" rx="7.2" fill="#1658DA"/>
</g>
<path d="M14.4719 22.0412C14.4719 20.1728 14.7851 18.7148 15.4115 17.6672C16.0487 16.6088 17.1395 16.0796 18.6839 16.0796C20.2283 16.0796 21.3137 16.6088 21.9401 17.6672C22.5773 18.7148 22.8959 20.1728 22.8959 22.0412C22.8959 23.9312 22.5773 25.4108 21.9401 26.48C21.3137 27.5384 20.2283 28.0676 18.6839 28.0676C17.1395 28.0676 16.0487 27.5384 15.4115 26.48C14.7851 25.4108 14.4719 23.9312 14.4719 22.0412ZM21.0815 22.0412C21.0815 21.1664 21.0221 20.4266 20.9033 19.8218C20.7953 19.217 20.5685 18.7256 20.2229 18.3476C19.8773 17.9588 19.3643 17.7644 18.6839 17.7644C18.0035 17.7644 17.4905 17.9588 17.1449 18.3476C16.7993 18.7256 16.5671 19.217 16.4483 19.8218C16.3403 20.4266 16.2863 21.1664 16.2863 22.0412C16.2863 22.9484 16.3403 23.7098 16.4483 24.3254C16.5563 24.941 16.7831 25.4378 17.1287 25.8158C17.4851 26.1938 18.0035 26.3828 18.6839 26.3828C19.3643 26.3828 19.8773 26.1938 20.2229 25.8158C20.5793 25.4378 20.8115 24.941 20.9195 24.3254C21.0275 23.7098 21.0815 22.9484 21.0815 22.0412ZM24.8177 19.2062C24.8825 18.2018 25.2659 17.4188 25.9679 16.8572C26.6807 16.2956 27.5879 16.0148 28.6895 16.0148C29.4455 16.0148 30.0989 16.1498 30.6497 16.4198C31.2005 16.6898 31.6163 17.057 31.8971 17.5214C32.1779 17.9858 32.3183 18.5096 32.3183 19.0928C32.3183 19.7624 32.1401 20.3348 31.7837 20.81C31.4273 21.2852 31.0007 21.6038 30.5039 21.7658V21.8306C31.1411 22.025 31.6379 22.3814 31.9943 22.8998C32.3507 23.4074 32.5289 24.0608 32.5289 24.86C32.5289 25.4972 32.3831 26.0642 32.0915 26.561C31.7999 27.0578 31.3679 27.452 30.7955 27.7436C30.2231 28.0244 29.5373 28.1648 28.7381 28.1648C27.5717 28.1648 26.6105 27.8678 25.8545 27.2738C25.1093 26.669 24.7097 25.805 24.6557 24.6818H26.4377C26.4809 25.2542 26.7023 25.724 27.1019 26.0912C27.5015 26.4476 28.0415 26.6258 28.7219 26.6258C29.3807 26.6258 29.8883 26.4476 30.2447 26.0912C30.6011 25.724 30.7793 25.2542 30.7793 24.6818C30.7793 23.9258 30.5363 23.3912 30.0503 23.078C29.5751 22.754 28.8407 22.592 27.8471 22.592H27.4259V21.0692H27.8633C28.7381 21.0584 29.4023 20.9126 29.8559 20.6318C30.3203 20.351 30.5525 19.9082 30.5525 19.3034C30.5525 18.785 30.3851 18.3746 30.0503 18.0722C29.7155 17.759 29.2403 17.6024 28.6247 17.6024C28.0199 17.6024 27.5501 17.759 27.2153 18.0722C26.8805 18.3746 26.6807 18.7526 26.6159 19.2062H24.8177Z" fill="white"/>
</svg>
