<svg width="45" height="45" viewBox="0 0 45 45" fill="none" xmlns="http://www.w3.org/2000/svg">
<rect width="45" height="45" rx="7.2" fill="#244A9A"/>
<mask id="mask0_1_151" style="mask-type:alpha" maskUnits="userSpaceOnUse" x="0" y="0" width="45" height="45">
<rect width="45" height="45" rx="7.2" fill="#7277C6"/>
</mask>
<g mask="url(#mask0_1_151)">
<rect x="-23.4001" y="24.3" width="45" height="45" rx="7.2" fill="#F9C5AF"/>
<rect x="7.19995" y="-8.09995" width="45" height="45" rx="7.2" fill="#1658DA"/>
</g>
<path d="M14.472 22.0412C14.472 20.1728 14.7852 18.7148 15.4116 17.6672C16.0488 16.6088 17.1396 16.0796 18.684 16.0796C20.2284 16.0796 21.3138 16.6088 21.9402 17.6672C22.5774 18.7148 22.896 20.1728 22.896 22.0412C22.896 23.9312 22.5774 25.4108 21.9402 26.48C21.3138 27.5384 20.2284 28.0676 18.684 28.0676C17.1396 28.0676 16.0488 27.5384 15.4116 26.48C14.7852 25.4108 14.472 23.9312 14.472 22.0412ZM21.0816 22.0412C21.0816 21.1664 21.0222 20.4266 20.9034 19.8218C20.7954 19.217 20.5686 18.7256 20.223 18.3476C19.8774 17.9588 19.3644 17.7644 18.684 17.7644C18.0036 17.7644 17.4906 17.9588 17.145 18.3476C16.7994 18.7256 16.5672 19.217 16.4484 19.8218C16.3404 20.4266 16.2864 21.1664 16.2864 22.0412C16.2864 22.9484 16.3404 23.7098 16.4484 24.3254C16.5564 24.941 16.7832 25.4378 17.1288 25.8158C17.4852 26.1938 18.0036 26.3828 18.684 26.3828C19.3644 26.3828 19.8774 26.1938 20.223 25.8158C20.5794 25.4378 20.8116 24.941 20.9196 24.3254C21.0276 23.7098 21.0816 22.9484 21.0816 22.0412ZM24.6071 17.975V16.2902H27.9767V28.1H26.1137V17.975H24.6071Z" fill="white"/>
</svg>
