<svg width="26" height="26" viewBox="0 0 26 26" fill="none" xmlns="http://www.w3.org/2000/svg">
<circle cx="13" cy="13" r="13" fill="url(#paint0_linear_276_1189)"/>
<path fill-rule="evenodd" clip-rule="evenodd" d="M6.18325 12.8367C10.0219 11.1856 12.5815 10.097 13.8623 9.5711C17.5191 8.06948 18.2789 7.80863 18.7742 7.80002C18.8831 7.79812 19.1267 7.82478 19.2844 7.95116C19.4176 8.05788 19.4543 8.20204 19.4718 8.30322C19.4894 8.4044 19.5112 8.63489 19.4938 8.81498C19.2957 10.8706 18.4382 15.859 18.002 18.1613C17.8174 19.1355 17.454 19.4622 17.1021 19.4941C16.3375 19.5636 15.7568 18.9952 15.0162 18.5159C13.8573 17.7659 13.2026 17.299 12.0776 16.5671C10.7776 15.7213 11.6203 15.2564 12.3612 14.4967C12.5551 14.2979 15.9243 11.2724 15.9895 10.9979C15.9976 10.9636 16.0052 10.8357 15.9282 10.7681C15.8512 10.7005 15.7376 10.7236 15.6556 10.742C15.5394 10.7681 13.688 11.9762 10.1014 14.3664C9.57591 14.7227 9.09992 14.8962 8.67345 14.8871C8.2033 14.8771 7.29892 14.6247 6.6266 14.4089C5.80198 14.1443 5.14659 14.0044 5.20366 13.5549C5.23339 13.3208 5.55991 13.0814 6.18325 12.8367Z" fill="white"/>
<defs>
<linearGradient id="paint0_linear_276_1189" x1="13" y1="0" x2="13" y2="26" gradientUnits="userSpaceOnUse">
<stop stop-color="#4790FB"/>
<stop offset="1" stop-color="#085CD8"/>
</linearGradient>
</defs>
</svg>
