<svg width="26" height="26" viewBox="0 0 26 26" fill="none" xmlns="http://www.w3.org/2000/svg">
<path d="M0 12.48C0 6.59685 0 3.65531 1.82765 1.82765C3.65531 0 6.59685 0 12.48 0H13.52C19.4032 0 22.3447 0 24.1724 1.82765C26 3.65531 26 6.59685 26 12.48V13.52C26 19.4032 26 22.3447 24.1724 24.1724C22.3447 26 19.4032 26 13.52 26H12.48C6.59685 26 3.65531 26 1.82765 24.1724C0 22.3447 0 19.4032 0 13.52V12.48Z" fill="#0077FF"/>
<path d="M13.7887 18.7199C7.74813 18.7199 4.30274 14.6208 4.15918 7.79993H7.18499C7.28438 12.8063 9.51503 14.9269 11.2819 15.3641V7.79993H14.1312V12.1176C15.876 11.9318 17.7089 9.96425 18.3273 7.79993H21.1765C20.7016 10.4671 18.7139 12.4346 17.3004 13.2435C18.7139 13.8994 20.9778 15.6155 21.8392 18.7199H18.7028C18.0292 16.6431 16.3508 15.0362 14.1312 14.8176V18.7199H13.7887Z" fill="white"/>
</svg>
